#!OML:ASF H:\Terrain\Patient Classification 1\Animal1\Tuesday\Animal1.ASF
:FULLY-SPECIFIED
:DEGREES
764
root 19.5414 15.7742 -17.7568 -178.115 -78.7892 -162.704
lowerback 7.71007 -0.332938 6.29626
upperback -4.67842 0.487967 4.20328
thorax -9.33402 -0.0751256 0.890994
lowerneck -0.404964 4.47194 -1.17627
upperneck 23.6192 6.11094 -4.05087
head 7.39848 2.11585 -0.785205
rclavicle -1.66979e-014 -3.10104e-014
rhumerus 31.7602 -29.9386 9.93841
rradius 49.8699
rwrist -38.2159
rhand 5.33023 26.7148
rfingers 7.12502
rthumb 30.6849 -0.746248
lclavicle -1.66979e-014 -3.10104e-014
lhumerus 18.6244 -2.65507 -4.07018
lradius 70.6712
lwrist 6.23125
lhand 28.5781 30.1935
lfingers 7.12502
lthumb 52.4241 -309.956
rfemur -48.4139 -13.9337 19.1825
rtibia 67.4645
rfoot -1.76421 -14.4521
rtoes -8.43286
lfemur -36.3778 12.6575 -30.7291
ltibia 52.7206
lfoot -14.1274 -1.59693
ltoes 24.857
765
root 19.3436 15.8889 -17.8547 -180.623 -79.7187 -160.403
lowerback 7.46221 -0.429947 6.80291
upperback -4.6262 0.386399 4.25059
thorax -9.13604 -0.151809 0.671363
lowerneck -0.628284 4.52182 -0.66418
upperneck 24.0773 6.25747 -4.54528
head 7.62587 2.16581 -1.0182
rclavicle -2.66371e-014 6.52014e-014
rhumerus 32.9447 -31.3154 8.32972
rradius 49.6964
rwrist -39.0813
rhand 6.13522 28.2216
rfingers 7.12502
rthumb 31.4522 0.907283
lclavicle -2.66371e-014 6.52014e-014
lhumerus 18.147 -2.60836 -4.57796
lradius 70.4817
lwrist 6.23548
lhand 29.7376 30.9971
lfingers 7.12502
lthumb 53.4709 -309.813
rfemur -48.1496 -12.1501 18.5014
rtibia 62.8388
rfoot -1.16555 -14.8655
rtoes -9.45489
lfemur -34.9336 12.5108 -29.7197
ltibia 51.8189
lfoot -12.2471 -1.99139
ltoes 21.933
766
root 19.1465 15.9932 -17.9545 -181.496 -80.6761 -159.88
lowerback 7.3251 -0.33686 6.97532
upperback -4.56453 0.512086 4.2439
thorax -8.98238 -0.0971874 0.545578
lowerneck 0.212752 4.88841 -0.808875
upperneck 23.3922 6.74004 -4.53525
head 7.25679 2.4311 -0.978304
rclavicle 2.78299e-014 -2.8625e-014
rhumerus 33.4707 -32.5054 7.53923
rradius 49.6377
rwrist -40.2122
rhand 6.54597 28.7335
rfingers 7.12502
rthumb 31.8434 1.49628
lclavicle 2.78299e-014 -2.8625e-014
lhumerus 18.4136 -2.41272 -4.40538
lradius 69.5369
lwrist 5.55875
lhand 30.4035 31.0565
lfingers 7.12502
lthumb 54.0693 -310.152
rfemur -47.602 -10.6777 17.3631
rtibia 57.9832
rfoot 0.897288 -15.0445
rtoes -14.7723
lfemur -33.4132 12.2119 -29.0169
ltibia 50.9813
lfoot -9.76207 -2.69283
ltoes 23.1693
767
root 18.9511 16.0959 -18.0511 -179.12 -81.8226 -162.538
lowerback 7.10458 -0.258769 6.76492
upperback -4.56117 0.566833 4.07182
thorax -8.84278 -0.0564997 0.466729
lowerneck -0.883241 4.20886 -1.46033
upperneck 24.6867 5.82897 -4.09914
head 7.83034 1.90701 -0.761464
rclavicle -6.36111e-015 -9.54166e-015
rhumerus 33.9145 -33.7327 6.65217
rradius 49.7185
rwrist -41.3636
rhand 6.90821 28.1547
rfingers 7.12502
rthumb 32.1883 0.986709
lclavicle -6.36111e-015 -9.54166e-015
lhumerus 18.8698 -2.28863 -4.27632
lradius 68.1096
lwrist 4.74645
lhand 30.173 30.8957
lfingers 7.12502
lthumb 53.8624 -310.174
rfemur -46.9993 -9.2477 15.495
rtibia 53.0762
rfoot 3.48259 -15.0628
rtoes -17.0928
lfemur -32.1404 11.8146 -28.9086
ltibia 50.2673
lfoot -7.22139 -3.37321
ltoes 26.3013
768
root 18.7543 16.1905 -18.1508 -178.325 -83.0789 -163.446
lowerback 6.66609 -0.204212 6.89454
upperback -4.60412 0.604582 3.9418
thorax -8.62759 -0.0450174 0.247422
lowerneck -1.02476 4.08747 -1.60329
upperneck 25.0433 5.68947 -4.08782
head 7.97023 1.81477 -0.740589
rclavicle 1.64991e-014 -2.22639e-014
rhumerus 34.4959 -34.8613 5.48951
rradius 49.6666
rwrist -42.2483
rhand 7.00336 27.4871
rfingers 7.12502
rthumb 32.2789 0.337532
lclavicle 1.64991e-014 -2.22639e-014
lhumerus 18.9159 -2.38419 -4.52671
lradius 67.1021
lwrist 4.32359
lhand 29.0091 30.9359
lfingers 7.12502
lthumb 52.8139 -309.455
rfemur -46.2668 -7.21057 13.5953
rtibia 48.3101
rfoot 6.70435 -15.4981
rtoes -18.9653
lfemur -31.2455 11.4154 -28.529
ltibia 49.7237
lfoot -4.56633 -3.84976
ltoes 27.4187
769
root 18.5525 16.2773 -18.2548 -176.825 -84.287 -165.069
lowerback 6.17501 -0.0837467 6.8683
upperback -4.63302 0.709242 3.82293
thorax -8.36265 0.0105725 0.117946
lowerneck -1.17375 3.94542 -1.7644
upperneck 25.4324 5.54272 -4.16306
head 8.12601 1.70761 -0.746411
rclavicle -4.17448e-015 3.81667e-014
rhumerus 34.8566 -35.6771 4.61731
rradius 49.4159
rwrist -42.753
rhand 6.61367 27.2037
rfingers 7.12502
rthumb 31.9079 -0.020648
lclavicle -4.17448e-015 3.81667e-014
lhumerus 18.6906 -2.59795 -4.83892
lradius 66.3734
lwrist 4.02538
lhand 27.553 31.1787
lfingers 7.12502
lthumb 51.4942 -308.42
rfemur -45.4213 -4.37707 11.1358
rtibia 43.9314
rfoot 9.61653 -16.5269
rtoes -19.2731
lfemur -30.4255 10.9073 -28.167
ltibia 49.3599
lfoot -1.73183 -4.06174
ltoes 28.7687
770
root 18.3516 16.3658 -18.3602 -170.327 -85.4124 -171.788
lowerback 5.88665 0.0760534 6.38966
upperback -4.67439 0.846519 3.60939
thorax -8.22833 0.105296 0.137564
lowerneck -1.32627 3.72191 -1.92151
upperneck 25.697 5.27763 -4.1915
head 8.23736 1.55642 -0.745854
rclavicle 3.18055e-015 5.08889e-014
rhumerus 34.8089 -36.0644 4.28277
rradius 49.0135
rwrist -42.9764
rhand 5.48476 27.0959
rfingers 7.12502
rthumb 30.8322 -0.337445
lclavicle 3.18055e-015 5.08889e-014
lhumerus 18.4736 -2.76626 -5.10237
lradius 65.6123
lwrist 3.5497
lhand 25.8848 31.9078
lfingers 7.12502
lthumb 49.9722 -306.855
rfemur -44.5193 -0.767764 7.73667
rtibia 40.076
rfoot 10.0023 -19.5607
rtoes -13.3791
lfemur -29.7246 10.8407 -28.1826
ltibia 49.3123
lfoot 1.26658 -4.29121
ltoes 31.5193
771
root 18.1565 16.4429 -18.4723 -164.168 -86.6416 -178.139
lowerback 5.69955 0.178882 6.17997
upperback -4.77655 0.949024 3.48482
thorax -8.2233 0.163884 0.110133
lowerneck -1.54065 3.55784 -2.19599
upperneck 26.0288 5.07285 -4.04244
head 8.37712 1.43583 -0.661144
rclavicle 1.05356e-014 1.43125e-014
rhumerus 35.5148 -36.6887 3.05064
rradius 48.2952
rwrist -42.1836
rhand 4.74383 27.2774
rfingers 7.12502
rthumb 30.1256 -0.287048
lclavicle 1.05356e-014 1.43125e-014
lhumerus 18.184 -2.93722 -5.55038
lradius 64.842
lwrist 3.13915
lhand 24.1526 32.6619
lfingers 7.12502
lthumb 48.382 -305.305
rfemur -43.6853 3.61432 4.25978
rtibia 36.9158
rfoot 0.584111 -25.9317
rtoes 15.5757
lfemur -29.5046 11.6168 -27.9374
ltibia 49.7377
lfoot 4.21207 -5.02636
ltoes 31.8788
772
root 17.9624 16.5 -18.5891 -161.253 -88.0646 -181.116
lowerback 5.34744 0.24698 6.42208
upperback -4.91769 1.03151 3.42948
thorax -8.16356 0.18613 -0.090383
lowerneck -1.61613 3.44685 -2.50181
upperneck 26.2894 4.90141 -3.74122
head 8.46363 1.34723 -0.519594
rclavicle -1.33186e-014 -1.43125e-014
rhumerus 39.6937 -37.6795 -2.16801
rradius 46.187
rwrist -38.617
rhand 5.24598 27.6878
rfingers 7.12502
rthumb 30.6046 0.211667
lclavicle -1.33186e-014 -1.43125e-014
lhumerus 17.9104 -3.1105 -6.19778
lradius 63.9495
lwrist 2.62591
lhand 22.4678 32.7121
lfingers 7.12502
lthumb 46.8267 -304.546
rfemur -43.1184 8.10183 1.29904
rtibia 34.5551
rfoot -21.3349 -22.6247
rtoes 53.3343
lfemur -29.8241 12.3599 -27.247
ltibia 50.7439
lfoot 6.67699 -5.80497
ltoes 30.8707
773
root 17.7715 16.547 -18.7088 -120.215 -89.4224 -222.169
lowerback 4.88957 0.319977 6.41246
upperback -5.02301 1.08428 3.30505
thorax -8.00361 0.211137 -0.220537
lowerneck -1.4621 3.28955 -2.6478
upperneck 26.0988 4.66331 -3.53912
head 8.35855 1.25906 -0.445245
rclavicle 4.77083e-015 -1.43125e-014
rhumerus 36.6984 -37.4603 0.484101
rradius 47.1261
rwrist -41.6241
rhand 5.27256 27.1457
rfingers 7.12502
rthumb 30.6299 -0.325687
lclavicle 4.77083e-015 -1.43125e-014
lhumerus 17.6439 -2.97402 -6.64756
lradius 63.0446
lwrist 1.70167
lhand 21.164 32.9228
lfingers 7.12502
lthumb 45.6179 -303.825
rfemur -42.8011 11.5947 -1.28139
rtibia 33.0484
rfoot -31.291 -15.6159
rtoes 60.998
lfemur -30.5446 12.4795 -26.7589
ltibia 52.3238
lfoot 8.71743 -6.50927
ltoes 28.5692
774
root 17.5866 16.5731 -18.8377 -204.867 -91.4667 -137.587
lowerback 4.44787 0.447885 6.06084
upperback -4.95406 1.17722 3.08499
thorax -7.66259 0.283394 -0.267945
lowerneck -1.66527 3.00538 -2.82871
upperneck 25.6936 4.29255 -3.33152
head 8.24406 1.11813 -0.365618
rclavicle 1.11319e-014 3.02153e-014
rhumerus 33.3898 -37.5041 2.9897
rradius 48.1783
rwrist -44.3307
rhand 5.26547 26.2456
rfingers 7.12502
rthumb 30.6232 -1.22705
lclavicle 1.11319e-014 3.02153e-014
lhumerus 17.553 -2.18078 -6.6838
lradius 62.025
lwrist 0.259858
lhand 20.6065 33.5791
lfingers 7.12502
lthumb 45.0996 -302.961
rfemur -42.583 13.6528 -3.18487
rtibia 32.3595
rfoot -35.4887 -11.7117
rtoes 62.9867
lfemur -31.5781 12.5446 -26.6372
ltibia 54.3914
lfoot 10.1286 -7.90622
ltoes 23.1005
